# Blender v2.79 (sub 0) OBJ File: ''
# www.blender.org
o Cube_Cube.003
v -1.000000 -1.000000 -1.000000
v 0.000000 -1.000000 -1.000000
v 1.000000 -1.000000 -1.000000
v 0.987500 -1.000000 -0.987500
v 0.975000 -1.000000 -0.975000
v 0.000000 -1.000000 -0.975000
v -0.975000 -1.000000 -0.975000
v -0.975000 -1.000000 -0.000000
v -0.975000 -1.000000 0.975000
v -0.987500 -1.000000 0.987500
v -1.000000 -1.000000 1.000000
v -1.000000 -1.000000 -0.000000
v -1.000000 1.000000 -1.000000
v -1.000000 1.000000 0.000000
v -1.000000 1.000000 1.000000
v 0.000000 1.000000 1.000000
v 1.000000 1.000000 1.000000
v 0.987500 1.000000 0.987500
v 0.975000 1.000000 0.975000
v 0.000000 1.000000 0.975000
v -0.975000 1.000000 0.975000
v -0.975000 1.000000 0.000000
v -0.975000 1.000000 -0.975000
v -0.987500 1.000000 -0.987500
v -1.000000 -1.000000 -1.000000
v -1.000000 0.000000 -1.000000
v -1.000000 1.000000 -1.000000
v -0.987500 0.987500 -1.000000
v -0.975000 0.975000 -1.000000
v -0.975000 0.000000 -1.000000
v -0.975000 -0.975000 -1.000000
v 0.000000 -0.975000 -1.000000
v 0.975000 -0.975000 -1.000000
v 0.987500 -0.987500 -1.000000
v 1.000000 -1.000000 -1.000000
v 0.000000 -1.000000 -1.000000
v 1.000000 -1.000000 1.000000
v 1.000000 -0.000000 1.000000
v 1.000000 1.000000 1.000000
v 0.000000 1.000000 1.000000
v -1.000000 1.000000 1.000000
v -0.987500 0.743750 1.000000
v -0.975000 0.487500 1.000000
v -0.975000 0.731250 1.000000
v -0.975000 0.975000 1.000000
v 0.000000 0.975000 1.000000
v 0.975000 0.975000 1.000000
v 0.975000 0.243750 1.000000
v 0.975000 -0.487500 1.000000
v 0.987500 -0.743750 1.000000
v 0.975000 0.000000 -1.000000
v 0.975000 0.975000 -0.999999
v 0.000000 0.975000 -1.000000
v 0.000000 1.000000 -1.000000
v 1.000001 1.000000 -0.999999
v 1.000000 0.000000 -1.000000
v 0.975000 -0.975000 1.000000
v 0.000000 -0.975000 1.000000
v -0.975000 -0.975000 1.000000
v -0.975000 -0.243750 1.000000
v -1.000000 -0.000000 1.000000
v -1.000000 -1.000000 1.000000
v 0.000000 -1.000000 1.000000
v 0.975000 -0.731250 1.000000
v 0.000000 1.000000 -0.975000
v 0.975000 1.000000 -0.975000
v 0.975000 1.000000 0.000000
v 1.000000 1.000000 0.000000
v 1.000001 1.000000 -0.999999
v 0.000000 1.000000 -1.000000
v 0.000000 -1.000000 0.975000
v 0.975000 -1.000000 0.975000
v 0.975000 -1.000000 -0.000000
v 1.000000 -1.000000 -0.000000
v 1.000000 -1.000000 1.000000
v 0.000000 -1.000000 1.000000
v 1.000000 -1.000000 -1.000000
v 1.000000 -1.000000 -0.000000
v 1.000000 -1.000000 1.000000
v 0.987500 -1.000000 0.987500
v 0.975000 -1.000000 0.975000
v 0.975000 -1.000000 -0.000000
v 0.975000 -1.000000 -0.975000
v 0.000000 -1.000000 -0.975000
v -0.975000 -1.000000 -0.975000
v -0.987500 -1.000000 -0.987500
v -1.000000 -1.000000 -1.000000
v 0.000000 -1.000000 -1.000000
v 1.000000 1.000000 -0.999999
v 0.000000 1.000000 -1.000000
v -1.000000 1.000000 -1.000000
v -1.000000 1.000000 0.000000
v -1.000000 1.000000 1.000000
v -0.987500 1.000000 0.987500
v -0.975000 1.000000 0.975000
v -0.975000 1.000000 0.000000
v -0.975000 1.000000 -0.975000
v 0.000000 1.000000 -0.975000
v 0.975000 1.000000 -0.975000
v 0.987500 1.000000 -0.987500
v 1.000000 -1.000000 -1.000000
v 1.000000 0.000000 -1.000000
v 1.000000 1.000000 -0.999999
v 1.000000 0.987500 -0.987500
v 1.000000 0.975000 -0.975000
v 1.000000 0.000000 -0.975000
v 1.000000 -0.975000 -0.975000
v 1.000000 -0.975000 -0.000000
v 1.000000 -0.975000 0.975000
v 1.000000 -0.987500 0.987500
v 1.000000 -1.000000 1.000000
v 1.000000 -1.000000 -0.000000
v -1.000000 -1.000000 1.000000
v -1.000000 -0.000000 1.000000
v -1.000000 1.000000 1.000000
v -1.000000 1.000000 0.000000
v -1.000000 1.000000 -1.000000
v -1.000000 0.743750 -0.987500
v -1.000000 0.487500 -0.975000
v -1.000000 0.731250 -0.975000
v -1.000000 0.975000 -0.975000
v -1.000000 0.975000 0.000000
v -1.000000 0.975000 0.975000
v -1.000000 0.243750 0.975000
v -1.000000 -0.487500 0.975000
v -1.000000 -0.743750 0.987500
v 1.000000 -0.000000 0.975000
v 0.999999 0.975000 0.975000
v 1.000000 0.975000 0.000000
v 1.000000 1.000000 0.000001
v 0.999999 1.000000 1.000001
v 1.000000 -0.000000 1.000000
v -1.000000 -0.975000 0.975000
v -1.000000 -0.975000 -0.000000
v -1.000000 -0.975000 -0.975000
v -1.000000 -0.243750 -0.975000
v -1.000000 0.000000 -1.000000
v -1.000000 -1.000000 -1.000000
v -1.000000 -1.000000 -0.000000
v -1.000000 -0.731250 0.975000
v 0.975000 1.000000 0.000000
v 0.975000 1.000000 0.975000
v 0.000000 1.000000 0.975000
v -0.000001 1.000000 1.000000
v 0.999999 1.000000 1.000001
v 1.000000 1.000000 0.000001
v -0.975000 -1.000000 -0.000000
v -0.975000 -1.000000 0.975000
v 0.000000 -1.000000 0.975000
v 0.000000 -1.000000 1.000000
v -1.000000 -1.000000 1.000000
v -1.000000 -1.000000 -0.000000
v -0.975000 0.000000 -0.975000
v -0.975000 -0.975000 -0.975000
v -0.975000 0.975000 -0.975000
v 0.975000 0.000000 -0.975000
v 0.975000 -0.975000 -0.975000
v 0.975000 0.975000 -0.975000
vt 0.666666 1.000000
vt 0.500000 1.000000
vt 0.333333 1.000000
vt 0.335417 0.997917
vt 0.337500 0.995833
vt 0.500000 0.995833
vt 0.662500 0.995833
vt 0.662500 0.833333
vt 0.662500 0.670833
vt 0.664583 0.668750
vt 0.666666 0.666667
vt 0.666666 0.833333
vt 0.333333 0.333333
vt 0.166667 0.333333
vt 0.000000 0.333333
vt 0.000000 0.166667
vt 0.000000 0.000000
vt 0.002083 0.002084
vt 0.004167 0.004167
vt 0.004167 0.166667
vt 0.004167 0.329167
vt 0.166667 0.329167
vt 0.329167 0.329167
vt 0.331250 0.331250
vt 0.333333 0.666667
vt 0.166667 0.666667
vt 0.000000 0.666667
vt 0.002083 0.664583
vt 0.004167 0.662500
vt 0.166667 0.662500
vt 0.329167 0.662500
vt 0.329167 0.500000
vt 0.329167 0.337500
vt 0.331250 0.335417
vt 0.333333 0.333334
vt 0.333333 0.500000
vt 0.000000 0.666667
vt 0.166667 0.666667
vt 0.333333 0.666667
vt 0.333333 0.833333
vt 0.333333 1.000000
vt 0.290625 0.997917
vt 0.247917 0.995833
vt 0.288542 0.995833
vt 0.329167 0.995833
vt 0.329167 0.833333
vt 0.329167 0.670833
vt 0.207292 0.670834
vt 0.085417 0.670834
vt 0.042708 0.668750
vt 0.166667 0.337500
vt 0.004167 0.337500
vt 0.004167 0.500000
vt 0.000000 0.500000
vt 0.000000 0.333333
vt 0.166667 0.333334
vt 0.004167 0.670834
vt 0.004167 0.833333
vt 0.004167 0.995833
vt 0.126042 0.995833
vt 0.166667 1.000000
vt 0.000000 1.000000
vt 0.000000 0.833333
vt 0.044792 0.670834
vt 0.329167 0.166667
vt 0.329167 0.004167
vt 0.166667 0.004167
vt 0.166667 0.000000
vt 0.333333 0.000000
vt 0.333333 0.166667
vt 0.500000 0.670833
vt 0.337500 0.670834
vt 0.337500 0.833333
vt 0.333333 0.833333
vt 0.333333 0.666667
vt 0.500000 0.666667
vt 0.666667 0.666667
vt 0.666667 0.500000
vt 0.666667 0.333333
vt 0.668750 0.335417
vt 0.670833 0.337500
vt 0.670833 0.500000
vt 0.670833 0.662500
vt 0.833333 0.662500
vt 0.995833 0.662500
vt 0.997916 0.664583
vt 1.000000 0.666667
vt 0.833333 0.666667
vt 0.666667 0.000000
vt 0.666667 0.166667
vt 0.666667 0.333333
vt 0.500000 0.333333
vt 0.333333 0.333333
vt 0.335417 0.331250
vt 0.337500 0.329167
vt 0.500000 0.329167
vt 0.662500 0.329167
vt 0.662500 0.166667
vt 0.662500 0.004167
vt 0.664583 0.002083
vt 0.333333 0.333333
vt 0.500000 0.333333
vt 0.666667 0.333334
vt 0.664583 0.335417
vt 0.662500 0.337500
vt 0.500000 0.337500
vt 0.337500 0.337500
vt 0.337500 0.500000
vt 0.337500 0.662500
vt 0.335417 0.664583
vt 0.333333 0.666667
vt 0.333333 0.500000
vt 1.000000 0.000000
vt 1.000000 0.166667
vt 1.000000 0.333333
vt 0.833333 0.333333
vt 0.666667 0.333333
vt 0.668750 0.290625
vt 0.670833 0.247917
vt 0.670833 0.288542
vt 0.670833 0.329167
vt 0.833333 0.329167
vt 0.995833 0.329167
vt 0.995833 0.207292
vt 0.995833 0.085417
vt 0.997917 0.042708
vt 0.500000 0.662500
vt 0.662500 0.662500
vt 0.662500 0.500000
vt 0.666667 0.500000
vt 0.666667 0.666667
vt 0.500000 0.666667
vt 0.995833 0.004167
vt 0.833333 0.004167
vt 0.670833 0.004167
vt 0.670833 0.126042
vt 0.666667 0.166667
vt 0.666667 0.000000
vt 0.833333 0.000000
vt 0.995833 0.044792
vt 0.500000 0.004167
vt 0.337500 0.004167
vt 0.337500 0.166667
vt 0.333333 0.166667
vt 0.333333 0.000000
vt 0.500000 0.000000
vt 0.995833 0.500000
vt 0.995833 0.337500
vt 0.833333 0.337500
vt 0.833333 0.333333
vt 1.000000 0.333333
vt 1.000000 0.500000
vn 0.0000 -1.0000 0.0000
vn -0.0000 1.0000 -0.0000
vn -0.0000 0.0000 -1.0000
vn -0.0000 -0.0000 1.0000
vn 1.0000 0.0000 0.0000
vn -1.0000 -0.0000 0.0000
s 1
f 1/1/1 2/2/1 3/3/1 4/4/1 5/5/1 6/6/1 7/7/1 8/8/1 9/9/1 10/10/1 11/11/1 12/12/1
f 13/13/2 14/14/2 15/15/2 16/16/2 17/17/2 18/18/2 19/19/2 20/20/2 21/21/2 22/22/2 23/23/2 24/24/2
f 25/25/3 26/26/3 27/27/3 28/28/3 29/29/3 30/30/3 31/31/3 32/32/3 33/33/3 34/34/3 35/35/3 36/36/3
f 37/37/4 38/38/4 39/39/4 40/40/4 41/41/4 42/42/4 43/43/4 44/44/4 45/45/4 46/46/4 47/47/4 48/48/4 49/49/4 50/50/4
f 35/35/3 34/34/3 33/33/3 51/51/3 52/52/3 53/53/3 29/29/3 28/28/3 27/27/3 54/54/3 55/55/3 56/56/3
f 57/57/4 58/58/4 59/59/4 60/60/4 43/43/4 42/42/4 41/41/4 61/61/4 62/62/4 63/63/4 37/37/4 50/50/4 49/49/4 64/64/4
f 23/23/2 65/65/2 66/66/2 67/67/2 19/19/2 18/18/2 17/17/2 68/68/2 69/69/2 70/70/2 13/13/2 24/24/2
f 11/11/1 10/10/1 9/9/1 71/71/1 72/72/1 73/73/1 5/5/1 4/4/1 3/3/1 74/74/1 75/75/1 76/76/1
f 77/77/1 78/78/1 79/79/1 80/80/1 81/81/1 82/82/1 83/83/1 84/84/1 85/85/1 86/86/1 87/87/1 88/88/1
f 89/89/2 90/90/2 91/91/2 92/92/2 93/93/2 94/94/2 95/95/2 96/96/2 97/97/2 98/98/2 99/99/2 100/100/2
f 101/101/5 102/102/5 103/103/5 104/104/5 105/105/5 106/106/5 107/107/5 108/108/5 109/109/5 110/110/5 111/111/5 112/112/5
f 113/113/6 114/114/6 115/115/6 116/116/6 117/117/6 118/118/6 119/119/6 120/120/6 121/121/6 122/122/6 123/123/6 124/124/6 125/125/6 126/126/6
f 111/111/5 110/110/5 109/109/5 127/127/5 128/128/5 129/129/5 105/105/5 104/104/5 103/103/5 130/130/5 131/131/5 132/132/5
f 133/133/6 134/134/6 135/135/6 136/136/6 119/119/6 118/118/6 117/117/6 137/137/6 138/138/6 139/139/6 113/113/6 126/126/6 125/125/6 140/140/6
f 99/99/2 141/141/2 142/142/2 143/143/2 95/95/2 94/94/2 93/93/2 144/144/2 145/145/2 146/146/2 89/89/2 100/100/2
f 87/87/1 86/86/1 85/85/1 147/147/1 148/148/1 149/149/1 81/81/1 80/80/1 79/79/1 150/150/1 151/151/1 152/152/1
l 158 156
l 153 154
l 156 157
l 155 153
