# Blender v2.79 (sub 0) OBJ File: ''
# www.blender.org
o Cube_Cube.003
v -1.000000 -1.000000 -1.000000
v 1.000000 -1.000000 -1.000000
v 1.000000 -1.000000 1.000000
v -1.000000 -1.000000 1.000000
v -1.000000 1.000000 -1.000000
v 1.000001 1.000000 -0.999999
v 1.000000 1.000000 1.000000
v -1.000000 1.000000 1.000000
v 0.975000 -0.975000 1.000000
v 0.975000 -0.975000 -1.000000
v -0.975000 -0.975000 1.000000
v -0.975000 -0.975000 -1.000000
v 0.975000 0.975000 -0.999999
v 0.975000 0.975000 1.000000
v 0.975000 -0.487500 1.000000
v -0.975000 0.487500 1.000000
v -0.975000 0.975000 1.000000
v -0.975000 0.975000 -1.000000
v 0.975000 -1.000000 0.975000
v 0.975000 1.000000 0.975000
v 0.975000 -1.000000 -0.975000
v 0.975000 1.000000 -0.975000
v 0.975000 -0.975000 -0.975000
v -1.000000 0.000000 -1.000000
v 1.000000 -1.000000 -0.000000
v -0.975000 -1.000000 0.975000
v -0.975000 1.000000 0.975000
v -0.975000 -1.000000 -0.975000
v -0.975000 1.000000 -0.975000
v -0.975000 0.975000 -0.975000
v -0.975000 -0.975000 -0.975000
v 0.000000 -1.000000 -1.000000
v -1.000000 -1.000000 -0.000000
v 1.000000 0.000000 -1.000000
v -0.000000 -1.000000 1.000000
v 1.000000 0.000000 1.000000
v -1.000000 0.000000 1.000000
v 0.000000 1.000000 -1.000000
v -1.000000 1.000000 -0.000000
v 1.000000 1.000000 0.000000
v -0.000000 1.000000 1.000000
v 0.000000 -0.975000 1.000000
v -0.000000 -0.975000 -1.000000
v 0.975000 0.243750 1.000000
v -0.975000 -0.243750 1.000000
v -0.975000 0.000000 -1.000000
v -0.975000 0.731250 1.000000
v -0.000000 0.975000 -1.000000
v -0.000000 0.975000 1.000000
v 0.975000 0.000000 -1.000000
v 0.975000 -0.731250 1.000000
v -0.987500 0.987500 -1.000000
v 0.987500 -0.987500 -1.000000
v 0.987500 -0.743750 1.000000
v -0.987500 0.743750 1.000000
v 0.975000 1.000000 -0.000000
v 0.975000 -1.000000 -0.000000
v 0.000000 -1.000000 0.975000
v 0.000000 1.000000 0.975000
v -0.000000 1.000000 -0.975000
v -0.000000 -1.000000 -0.975000
v -0.975000 -0.000000 -0.975000
v -0.975000 1.000000 0.000000
v -0.975000 -1.000000 0.000000
v 0.987500 1.000000 0.987500
v -0.987500 1.000000 -0.987500
v 0.987500 -1.000000 -0.987500
v -0.987500 -1.000000 0.987500
v 1.000000 -1.000000 -1.000000
v 1.000000 -1.000000 1.000000
v -1.000000 -1.000000 1.000000
v -1.000000 -1.000000 -1.000000
v 1.000000 1.000000 -0.999999
v 0.999999 1.000000 1.000001
v -1.000000 1.000000 1.000000
v -1.000000 1.000000 -1.000000
v -1.000000 -0.975000 0.975000
v 1.000000 -0.975000 0.975000
v -1.000000 -0.975000 -0.975000
v 1.000000 -0.975000 -0.975000
v 0.999999 0.975000 0.975000
v -1.000000 0.975000 0.975000
v -1.000000 -0.487500 0.975000
v -1.000000 0.487500 -0.975000
v -1.000000 0.975000 -0.975000
v 1.000000 0.975000 -0.975000
v -0.975000 -1.000000 0.975000
v -0.975000 1.000000 0.975000
v 0.975000 -1.000000 0.975000
v 0.975000 1.000000 0.975000
v 0.975000 -0.975000 0.975000
v 1.000000 0.000000 -1.000000
v 0.000000 -1.000000 1.000000
v -0.975000 -1.000000 -0.975000
v -0.975000 1.000000 -0.975000
v 0.975000 -1.000000 -0.975000
v 0.975000 1.000000 -0.975000
v 0.975000 0.975000 -0.975000
v 0.975000 -0.975000 -0.975000
v 1.000000 -1.000000 0.000000
v 0.000000 -1.000000 -1.000000
v 1.000000 0.000000 1.000000
v -1.000000 -1.000000 -0.000000
v -1.000000 0.000000 1.000000
v -1.000000 0.000000 -1.000000
v 1.000000 1.000000 0.000001
v 0.000000 1.000000 -1.000000
v -0.000001 1.000000 1.000000
v -1.000000 1.000000 -0.000000
v -1.000000 -0.975000 0.000000
v 1.000000 -0.975000 0.000000
v -1.000000 0.243750 0.975000
v -1.000000 -0.243750 -0.975000
v 1.000000 0.000000 -0.975000
v -1.000000 0.731250 -0.975000
v 1.000000 0.975000 0.000000
v -1.000000 0.975000 -0.000000
v 1.000000 0.000000 0.975000
v -1.000000 -0.731250 0.975000
v 1.000000 0.987500 -0.987500
v 1.000000 -0.987500 0.987500
v -1.000000 -0.743750 0.987500
v -1.000000 0.743750 -0.987500
v 0.000000 1.000000 0.975000
v 0.000000 -1.000000 0.975000
v -0.975000 -1.000000 0.000000
v -0.975000 1.000000 0.000000
v 0.975000 1.000000 0.000000
v 0.975000 -1.000000 0.000000
v 0.975000 -0.000000 -0.975000
v 0.000000 1.000000 -0.975000
v 0.000000 -1.000000 -0.975000
v -0.987500 1.000000 0.987500
v 0.987500 1.000000 -0.987500
v 0.987500 -1.000000 0.987500
v -0.987500 -1.000000 -0.987500
v 0.000000 -1.000000 -1.000000
v 1.000000 -1.000000 -1.000000
v -0.000000 -1.000000 1.000000
v -1.000000 -1.000000 1.000000
v 0.000000 1.000000 -1.000000
v 1.000001 1.000000 -0.999999
v -0.000000 1.000000 1.000000
v -1.000000 1.000000 1.000000
v -1.000000 -1.000000 -1.000000
v 1.000000 -1.000000 1.000000
v -1.000000 1.000000 -1.000000
v 1.000000 1.000000 1.000000
v 1.000000 -1.000000 0.000000
v 1.000000 -1.000000 1.000000
v -1.000000 -1.000000 -0.000000
v -1.000000 -1.000000 -1.000000
v 1.000000 1.000000 0.000001
v 0.999999 1.000000 1.000001
v -1.000000 1.000000 -0.000000
v -1.000000 1.000000 -1.000000
v 1.000000 -1.000000 -1.000000
v -1.000000 -1.000000 1.000000
v 1.000000 1.000000 -0.999999
v -1.000000 1.000000 1.000000
vn 0.0000 -1.0000 -0.0000
vn -0.0000 1.0000 0.0000
vn -0.0000 -0.0000 -1.0000
vn -0.0000 -0.0000 1.0000
vn 1.0000 0.0000 -0.0000
vn -1.0000 -0.0000 -0.0000
s off
f 1//1 137//1 138//1 67//1 21//1 61//1 28//1 64//1 26//1 68//1 140//1 33//1
f 5//2 39//2 8//2 143//2 7//2 65//2 20//2 59//2 27//2 63//2 29//2 66//2
f 145//3 24//3 147//3 52//3 18//3 46//3 12//3 43//3 10//3 53//3 2//3 32//3
f 3//4 36//4 148//4 41//4 144//4 55//4 16//4 47//4 17//4 49//4 14//4 44//4 15//4 54//4
f 2//3 53//3 10//3 50//3 13//3 48//3 18//3 52//3 147//3 141//3 142//3 34//3
f 9//4 42//4 11//4 45//4 16//4 55//4 144//4 37//4 4//4 139//4 3//4 54//4 15//4 51//4
f 29//2 60//2 22//2 56//2 20//2 65//2 7//2 40//2 6//2 38//2 5//2 66//2
f 140//1 68//1 26//1 58//1 19//1 57//1 21//1 67//1 138//1 25//1 146//1 35//1
f 69//1 149//1 150//1 135//1 89//1 129//1 96//1 132//1 94//1 136//1 152//1 101//1
f 73//2 107//2 76//2 155//2 75//2 133//2 88//2 127//2 95//2 131//2 97//2 134//2
f 157//5 92//5 159//5 120//5 86//5 114//5 80//5 111//5 78//5 121//5 70//5 100//5
f 71//6 104//6 160//6 109//6 156//6 123//6 84//6 115//6 85//6 117//6 82//6 112//6 83//6 122//6
f 70//5 121//5 78//5 118//5 81//5 116//5 86//5 120//5 159//5 153//5 154//5 102//5
f 77//6 110//6 79//6 113//6 84//6 123//6 156//6 105//6 72//6 151//6 71//6 122//6 83//6 119//6
f 97//2 128//2 90//2 124//2 88//2 133//2 75//2 108//2 74//2 106//2 73//2 134//2
f 152//1 136//1 94//1 126//1 87//1 125//1 89//1 135//1 150//1 93//1 158//1 103//1
l 62 31
l 30 62
l 130 99
l 98 130
